<?xml version="1.0" encoding="utf-8"?>
<svg version="1.1" id="Laag_1" xmlns="http://www.w3.org/2000/svg" xmlns:xlink="http://www.w3.org/1999/xlink" x="0px" y="0px"
	 viewBox="0 0 100.4 23.7" style="enable-background:new 0 0 100.4 23.7;" xml:space="preserve">
<style type="text/css">
	.st0{fill:#0b0c07;}
	.st1{fill:#88ECF2;}
</style>
<path class="st0" d="M35.8,5.5c-1,0-1.8,0.2-2.5,0.7s-1.2,1.1-1.4,1.9h-0.1c-0.1-0.8-0.5-1.4-1.2-1.9s-1.5-0.7-2.4-0.7
	s-1.7,0.2-2.4,0.7c-0.7,0.5-1.1,1.1-1.4,1.9h-0.1V5.7h-4.5v13.1h4.7v-7.6c0-0.4,0.1-0.7,0.2-1s0.3-0.5,0.5-0.6s0.5-0.2,0.8-0.2
	c0.5,0,0.9,0.2,1.2,0.5c0.3,0.3,0.4,0.8,0.4,1.3v7.6h4.5v-7.6c0-0.6,0.1-1,0.4-1.3c0.3-0.3,0.7-0.5,1.2-0.5s0.9,0.2,1.2,0.5
	s0.4,0.8,0.4,1.3v7.6H40V9.9c0-1.3-0.4-2.4-1.2-3.2S37,5.5,35.8,5.5z"/>
<path class="st0" d="M5.8,1.3L0,18.7h5.1l1-3.3h5.8l1,3.3H18L12.2,1.3H5.8z M7.2,11.9l1.7-5.8H9l1.7,5.8H7.2z"/>
<path class="st1" d="M99.6,15c-0.5-0.5-1-0.7-1.7-0.7s-1.2,0.2-1.7,0.7s-0.7,1-0.7,1.7s0.2,1.2,0.7,1.7s1,0.7,1.7,0.7
	c0.4,0,0.8-0.1,1.2-0.3c0.4-0.2,0.6-0.5,0.9-0.9c0.2-0.4,0.3-0.8,0.3-1.2C100.4,16,100.1,15.4,99.6,15z"/>
<path class="st0" d="M67.3,4.3c0.6,0,1.2-0.2,1.6-0.6c0.5-0.4,0.7-0.9,0.7-1.5s-0.2-1.1-0.7-1.5C68.5,0.2,68,0,67.3,0
	c-0.6,0-1.2,0.2-1.6,0.6c-0.5,0.5-0.7,1-0.7,1.5c0,0.6,0.2,1.1,0.7,1.5C66.1,4.1,66.7,4.3,67.3,4.3z"/>
<rect x="65" y="5.7" class="st0" width="4.7" height="13.1"/>
<path class="st0" d="M53.2,6.2c-0.8-0.5-1.6-0.7-2.5-0.7c-0.6,0-1.2,0.1-1.7,0.3c-0.5,0.2-0.9,0.5-1.2,0.9S47.2,7.5,47,7.9l0,0V5.7
	h-4.7v18H47v-7.1h0.1c0.2,0.4,0.4,0.8,0.8,1.2c0.3,0.3,0.8,0.6,1.2,0.8c0.5,0.2,1,0.3,1.6,0.3c0.9,0,1.8-0.2,2.6-0.7
	s1.4-1.2,1.9-2.2s0.7-2.2,0.7-3.8s-0.2-2.9-0.7-3.9C54.7,7.4,54,6.6,53.2,6.2z M50.8,13.9c-0.2,0.5-0.4,0.8-0.7,1.1
	c-0.3,0.2-0.7,0.4-1.1,0.4c-0.4,0-0.8-0.1-1.1-0.4c-0.3-0.3-0.5-0.6-0.7-1.1s-0.2-1-0.2-1.7c0-0.6,0.1-1.2,0.2-1.7
	c0.2-0.5,0.4-0.8,0.7-1.1C48.2,9.2,48.6,9,49,9c0.4,0,0.8,0.1,1.1,0.4c0.3,0.2,0.5,0.6,0.7,1.1s0.2,1,0.2,1.7S51,13.4,50.8,13.9z"/>
<path class="st0" d="M77.7,4.3C77.9,4.1,78.2,4,78.6,4c0.2,0,0.4,0,0.6,0.1c0.2,0,0.4,0.1,0.6,0.1l0.7-3.4c-0.3-0.1-0.7-0.1-1.3-0.2
	c-0.6-0.1-1.1-0.1-1.7-0.1c-1,0-1.8,0.2-2.5,0.5c-0.7,0.4-1.2,0.9-1.6,1.6s-0.6,1.6-0.6,2.7v0.4h-1.7v3.4h1.7v9.7h4.7V9.1h2.4V5.7
	h-2.4V5.1C77.5,4.8,77.6,4.5,77.7,4.3z"/>
<path class="st0" d="M87.8,14.7L87.8,14.7l-2.2-9.1h-4.9l4.6,13.7l-0.1,0.2c-0.1,0.2-0.3,0.4-0.5,0.5s-0.5,0.1-0.8,0.1
	s-0.7-0.1-1.1-0.3l-1,3.3c0.4,0.1,0.8,0.3,1.3,0.3c0.5,0.1,1,0.1,1.5,0.1c1.1,0,2-0.2,2.7-0.5s1.3-0.8,1.8-1.4s0.8-1.2,1-1.9
	l4.8-14.2H90L87.8,14.7z"/>
<rect x="57.9" y="1.3" class="st0" width="4.7" height="17.5"/>
</svg>
